# xmcd CD database file
#
# Track frame offsets:
#	150
#	12544
#	26212
#	37726
#	49301
#	63480
#	74854
#	86983
#	100678
#	113683
#	127138
#	141821
#	154488
#	165082
#
# Disc length: 2419 seconds
#
# Revision: 0
# Processed by: cddbd v1.5.2PL0 Copyright (c) Steve Scherf et al.
# Submitted via: CDex 1.70beta2
#
DISCID=c809710e
DTITLE=B.B. KING - Anthology [CD3]
DYEAR=2007
DGENRE=Blues
TTITLE0=Please Hurry Home
TTITLE1=Ruby Lee
TTITLE2=Shake It Up And Go
TTITLE3=She's A Mean Woman
TTITLE4=She Don't Move Me No More
TTITLE5=She's Dynamite
TTITLE6=Shut Your Mouth
TTITLE7=Sneakin' Around
TTITLE8=Someday, Somewhere
TTITLE9=Story From My Heart And Soul
TTITLE10=Sweet Little Angel
TTITLE11=Ten Long Years
TTITLE12=That Ain't The Way To Do It
TTITLE13=The Other Night Blues
EXTD=YEAR: 2007
EXTT0=
EXTT1=
EXTT2=
EXTT3=
EXTT4=
EXTT5=
EXTT6=
EXTT7=
EXTT8=
EXTT9=
EXTT10=
EXTT11=
EXTT12=
EXTT13=
PLAYORDER=
